<svg id="Layer_1" enable-background="new 0 0 512 512" height="512" viewBox="0 0 512 512" width="512" xmlns="http://www.w3.org/2000/svg"><g><path d="m452.902 11.573c-11.509-13.711-32.026-15.509-45.802-3.946l-52.962 45.213c-18.196-14.714-44.898-15.01-63.482.581-2.031 1.705-3.303 4.148-3.534 6.789-.231 2.643.597 5.269 2.302 7.3l6.493 7.749c-4.723-.83-9.522-1.26-14.378-1.26h-.08c-10.76 0-21.26 2.04-31.21 6.08-10.3 4.18-19.53 10.305-27.44 18.215-5.69 5.691-10.51 12.128-14.31 19.149-3.81-7.021-8.62-13.462-14.31-19.153-7.91-7.91-17.14-14.031-27.44-18.211-9.949-4.038-20.449-6.079-31.209-6.079h-.08c-10.76 0-21.26 2.04-31.21 6.08-10.3 4.18-19.53 10.305-27.44 18.215-7.91 7.911-14.05 17.149-18.23 27.459-4.039 9.96-6.09 20.47-6.079 31.23-.01 10.72 2.03 21.201 6.04 31.131 4.16 10.281 10.25 19.5 18.11 27.401l36.342 39.775-57.919 48.597c-2.867 2.406-4.151 6.211-3.327 9.863.824 3.651 3.617 6.535 7.239 7.478 9.673 2.515 19.524 3.745 29.319 3.745 24.315 0 48.266-7.607 68.281-21.973l44.534 48.741c1.89 2.06 4.58 3.25 7.38 3.25s5.49-1.19 7.38-3.25l61.71-67.543c1.8-1.98 2.729-4.531 2.61-7.2-.12-2.67-1.271-5.13-3.24-6.93-1.851-1.69-4.25-2.62-6.75-2.62-2.8 0-5.49 1.189-7.38 3.26l-54.33 59.463-117.55-128.636c-11.89-11.901-18.44-27.721-18.45-44.552.01-16.831 6.56-32.652 18.45-44.552 11.89-11.891 27.71-18.441 44.55-18.451 16.83.01 32.65 6.56 44.55 18.451 11.89 11.9 18.44 27.721 18.45 44.552 0 2.63 1.07 5.21 2.93 7.07s4.44 2.931 7.07 2.931 5.21-1.07 7.07-2.931c1.86-1.86 2.93-4.44 2.93-7.07.01-16.831 6.56-32.652 18.45-44.552 11.89-11.891 27.71-18.441 44.55-18.451 6.87.004 13.565 1.115 19.9 3.217l-47.998 40.275c-2.088 1.751-3.37 4.279-3.55 6.999-.18 2.719.757 5.394 2.595 7.406l30.33 33.201c1.968 2.155 4.67 3.255 7.387 3.255 2.271 0 4.554-.771 6.424-2.339l47.031-39.461c.57 3.422.878 6.911.88 10.449-.01 16.831-6.57 32.651-18.45 44.552l-2.51 2.72c-3.721 4.08-3.431 10.42.64 14.131 1.84 1.69 4.24 2.62 6.74 2.62 2.8 0 5.49-1.18 7.38-3.25.01-.01.01-.01.01-.01l2.03-2.23c7.87-7.901 13.96-17.121 18.12-27.402 4.01-9.93 6.05-20.411 6.04-31.131.003-3.23-.203-6.433-.569-9.61 6.046 2.467 12.501 3.732 18.981 3.732 11.329 0 22.721-3.826 32.058-11.663 2.032-1.704 3.303-4.147 3.534-6.789s-.597-5.268-2.302-7.299l-19.618-23.38 52.317-44.661c6.642-5.574 10.718-13.402 11.474-22.041s-1.898-17.055-7.472-23.699zm-309.903 276.559c-17.115 11.667-37.515 17.502-58.036 16.786l41.532-34.847zm148.077-123.621-16.829-18.422 46.106-38.688c1.979 1.556 3.887 3.223 5.696 5.03 4.186 4.193 7.696 8.881 10.507 13.92zm68.861-44.079-29.198-34.799c-.006-.008-.014-.014-.02-.021l-18.443-21.979c11.54-4.301 25.054-1.158 33.412 8.802l47.661 56.8c-11.54 4.3-25.054 1.157-33.412-8.803zm23.79-33.78-16.023-19.096 26.864-22.934 16.025 19.095zm56.723-53.123c-.29 3.317-1.854 6.322-4.47 8.517l-10.178 8.688-16.023-19.098 10.241-8.743c5.266-4.415 13.142-3.729 17.561 1.538 2.14 2.551 3.159 5.781 2.869 9.098z"/><circle cx="300.568" cy="244.229" r="10"/><path d="m208.464 436.997c-2.964 0-5.776 1.315-7.676 3.591-6.712 8.04-22.324 28.168-22.324 41.411 0 16.543 13.458 30.001 30 30.001s30-13.458 30-30.001c0-13.243-15.612-33.372-22.324-41.411-1.9-2.276-4.712-3.591-7.676-3.591zm0 55.002c-5.514 0-10-4.487-10-9.986.098-2.852 4.322-10.48 10-18.562 5.675 8.078 9.897 15.701 10 18.557-.005 5.51-4.489 9.991-10 9.991z"/><path d="m128.535 381.994c-2.964 0-5.776 1.315-7.676 3.591-6.712 8.04-22.324 28.168-22.324 41.411 0 16.543 13.458 30.001 30 30.001s30-13.459 30-30.001c0-13.243-15.612-33.372-22.324-41.411-1.9-2.275-4.712-3.591-7.676-3.591zm0 55.003c-5.514 0-10-4.487-10-9.986.098-2.852 4.322-10.48 10-18.563 5.675 8.079 9.897 15.701 10 18.558-.005 5.51-4.489 9.991-10 9.991z"/><path d="m288.464 381.994c-2.965 0-5.776 1.315-7.676 3.591-6.713 8.04-22.324 28.168-22.324 41.411 0 16.543 13.458 30.001 30 30.001s30-13.459 30-30.001c0-13.243-15.611-33.372-22.324-41.411-1.9-2.275-4.712-3.591-7.676-3.591zm0 55.003c-5.514 0-10-4.487-10-9.986.098-2.852 4.322-10.48 10-18.563 5.676 8.079 9.896 15.701 10 18.558-.005 5.51-4.49 9.991-10 9.991z"/></g></svg>