<?xml version="1.0"?>
<svg xmlns="http://www.w3.org/2000/svg" viewBox="0 0 512 512" width="512" height="512"><g id="Solid"><path d="M56,176V160H46.806l20-16H96v29.1L60.253,216H44.882l-.978-3.126,11.6-4.278C61.333,206.333,64,199.338,64,196.65A12.665,12.665,0,0,0,51.35,184H37.766L35.1,176ZM349.657,413.657a7.986,7.986,0,0,1-2.079,1.5l-7.16,3.58A7.953,7.953,0,0,0,336,425.89V432h28.687L408,388.686V376.432a71.119,71.119,0,0,1-36.883-44.385l-.64-2.247-25.9,7.064A91.6,91.6,0,0,0,362.4,381.871l4,5.327a8,8,0,0,1-.741,10.459ZM440,260.28V312a8,8,0,0,0,1.854,5.122L480,362.9v42.437L460,432H432v-6.11a7.953,7.953,0,0,1,4.418-7.155l7.16-3.58A8,8,0,0,0,448,408V376a8,8,0,0,0-8-8,55.324,55.324,0,0,1-20.983-4.11c-29.158-11.87-40.523-44.113-32.321-73.038L371.3,286.484c-3.619,12.76-4.354,21.754-4.154,27.637L286.929,336H256V296H240v63.208L225.441,432H184v-8.155a6.643,6.643,0,0,1,2.965-5.54l17.473-11.649A8,8,0,0,0,208,400V279.922a157.791,157.791,0,0,0,53.9-11.265l13.075-5.229a8,8,0,0,0,4.457-10.4l-4.521-11.3A157.621,157.621,0,0,0,250.25,200H379.72A61.334,61.334,0,0,1,418.5,214.143c1.338,1.117,2.633,2.3,3.848,3.514A59.886,59.886,0,0,1,440,260.28ZM288,296H272v24h16Zm32,0H304v16h16ZM153.09,91.969A8,8,0,0,0,160,104a160.278,160.278,0,0,1,138.724,80H232a8,8,0,0,0-5.656,13.658l2.143,2.143a141.8,141.8,0,0,1,31.565,47.868l1.55,3.874-5.648,2.259A141.947,141.947,0,0,1,203,264h-3a8,8,0,0,0-8,8v63.626a87.073,87.073,0,0,1-61.935-35.064L74.151,224.315l36-43.193A8,8,0,0,0,112,176V136a8,8,0,0,0-8-8H72.5A51.64,51.64,0,0,1,94.15,92.771l.565-.393a68.635,68.635,0,0,1,39.366-12.394h.064c8.751.008,18.344.012,25.927.014ZM112,112h24V96H112Zm17.865,71.36,27,11.5,6.27-14.72-27-11.5Zm.353,55.606-17-21-12.436,10.068,17,21ZM167.8,274.541l.824-.694-16-19-12.238,10.306,16,19,11.41-9.609.779-.381Zm3.08-44.967-21.5-19.5-10.75,11.852,21.5,19.5Zm47.812.826-26-13.5-7.374,14.2,26,13.5ZM206.06,151.761l32,8,3.88-15.522-32-8Zm-30.284,39.761,29,10.5,5.448-15.044-29-10.5Zm-30.589-63.434-2.374,15.824,30,4.5,2.374-15.824ZM136.269,329.8,78.311,373.267,64,401.889V408H98.234l6.176-18.53a8,8,0,0,1,4.781-4.961l61.462-23.048,7.409-11.861A103.407,103.407,0,0,1,136.269,329.8ZM488,262.63A62.885,62.885,0,0,0,442.6,202.4L438.2,217.787A46.816,46.816,0,0,1,472,262.63v18.74a63.068,63.068,0,0,0,18.343,44.287l11.314-11.314A46.954,46.954,0,0,1,488,281.37Z"/></g></svg>
