<?xml version="1.0" encoding="iso-8859-1"?>
<!-- Generator: Adobe Illustrator 19.0.0, SVG Export Plug-In . SVG Version: 6.00 Build 0)  -->
<svg version="1.1" id="Layer_1" xmlns="http://www.w3.org/2000/svg" xmlns:xlink="http://www.w3.org/1999/xlink" x="0px" y="0px"
	 viewBox="0 0 512 512" style="enable-background:new 0 0 512 512;" xml:space="preserve">
<g>
	<g>
		<circle cx="211.72" cy="191.72" r="8.718"/>
	</g>
</g>
<g>
	<g>
		<circle cx="180.59" cy="219.91" r="8.718"/>
	</g>
</g>
<g>
	<g>
		<path d="M177.414,104.652L145.13,48.734c-2.105-3.644-6.763-4.89-10.404-2.788c-3.643,2.104-4.891,6.762-2.788,10.404
			l32.284,55.919c1.411,2.444,3.971,3.809,6.603,3.809c1.292,0,2.602-0.329,3.801-1.022
			C178.269,112.952,179.517,108.294,177.414,104.652z"/>
	</g>
</g>
<g>
	<g>
		<path d="M380.062,455.649l-32.284-55.918c-2.104-3.643-6.764-4.89-10.405-2.788c-3.643,2.104-4.891,6.762-2.788,10.405
			l32.285,55.918c1.411,2.444,3.971,3.809,6.603,3.809c1.292,0,2.602-0.329,3.801-1.022
			C380.917,463.949,382.165,459.291,380.062,455.649z"/>
	</g>
</g>
<g>
	<g>
		<path d="M112.268,164.224L56.35,131.939c-3.645-2.103-8.302-0.856-10.404,2.788c-2.103,3.641-0.854,8.299,2.788,10.403
			l55.918,32.285c1.2,0.692,2.509,1.022,3.801,1.022c2.632,0,5.193-1.366,6.603-3.809
			C117.16,170.985,115.911,166.327,112.268,164.224z"/>
	</g>
</g>
<g>
	<g>
		<path d="M463.266,366.87l-55.918-32.285c-3.646-2.104-8.303-0.856-10.405,2.788c-2.104,3.643-0.855,8.301,2.788,10.405
			l55.918,32.285c1.2,0.692,2.509,1.022,3.801,1.022c2.632,0,5.193-1.366,6.603-3.809
			C468.157,373.632,466.908,368.974,463.266,366.87z"/>
	</g>
</g>
<g>
	<g>
		<path d="M174.627,396.943c-3.646-2.104-8.302-0.856-10.404,2.788l-32.285,55.918c-2.104,3.643-0.855,8.301,2.788,10.404
			c1.2,0.692,2.509,1.022,3.801,1.022c2.632,0,5.193-1.366,6.603-3.809l32.285-55.918
			C179.518,403.705,178.269,399.047,174.627,396.943z"/>
	</g>
</g>
<g>
	<g>
		<path d="M377.274,45.948c-3.645-2.103-8.303-0.856-10.404,2.788l-32.285,55.918c-2.103,3.641-0.854,8.299,2.788,10.403
			c1.2,0.692,2.509,1.022,3.801,1.022c2.632,0,5.193-1.366,6.603-3.809l32.285-55.918C382.166,52.709,380.917,48.051,377.274,45.948
			z"/>
	</g>
</g>
<g>
	<g>
		<path d="M510.394,200.272c-2.24-4.016-6.488-6.51-11.086-6.51H365.401c-10.498-24.232-33.256-41.065-59.593-41.065
			c-19.186,0-37.422,9.227-49.808,24.681c-12.386-15.454-30.62-24.681-49.807-24.681c-26.338,0-49.096,16.832-59.594,41.065H89.787
			c-4.207,0-7.617,3.41-7.617,7.617c0,4.207,3.41,7.617,7.617,7.617h52.068c-0.922,4.679-1.421,9.525-1.443,14.492
			c-0.096,1.153-0.307,4.434-0.152,9.266H56.659c-15.498,0-29.61-7.873-37.751-21.06l-1.665-2.698h25.828
			c4.207,0,7.617-3.41,7.617-7.617c0-4.207-3.41-7.617-7.617-7.617H12.692c-4.598,0-8.845,2.494-11.086,6.51
			c-2.239,4.016-2.13,8.941,0.285,12.852l4.055,6.57c10.765,17.438,29.304,27.951,49.738,28.276l4.828,10.332
			c8.378,17.93,23.853,29.068,40.384,29.068h11.773l2.845,8.995c5.941,18.782,17.127,29.996,29.925,29.996h41.438
			c16.024,13.149,37.736,24.963,67.19,32.691c0.634,0.166,1.283,0.249,1.933,0.249c0.65,0,1.299-0.083,1.933-0.249
			c29.453-7.729,51.165-19.542,67.189-32.691h41.438c12.799,0,23.985-11.214,29.924-29.996l2.846-8.995h11.773
			c16.532,0,32.006-11.138,40.384-29.068l4.828-10.332c20.434-0.325,38.973-10.838,49.738-28.276l4.055-6.569
			C512.524,209.213,512.633,204.288,510.394,200.272z M100.897,272.138c-10.711,0-20.648-7.583-26.583-20.283l-1.623-3.474h69.104
			c1.141,7.043,3.058,15.143,6.215,23.757H100.897z M145.439,311.129c-4.619,0-11.172-5.985-15.401-19.356l-1.391-4.401h26.126
			c4.048,7.667,9.374,15.763,16.357,23.757H145.439z M255.999,343.802c-45.139-12.275-75.722-35.831-90.912-70.036
			c-11.557-26.024-9.502-48.95-9.482-49.159c0.027-0.257,0.04-0.515,0.04-0.773c0-30.825,22.676-55.903,50.549-55.903
			c17.733,0,33.86,10.008,43.143,26.771c1.342,2.424,3.894,3.927,6.664,3.927c2.77,0,5.322-1.503,6.664-3.927
			c9.283-16.764,25.412-26.771,43.144-26.771c27.872,0,50.548,25.078,50.548,55.903c0,0.245,0.014,0.509,0.038,0.753
			c0.022,0.229,2.077,23.155-9.48,49.179C331.723,307.971,301.139,331.527,255.999,343.802z M381.961,291.773
			c-4.228,13.371-10.781,19.356-15.4,19.356H340.87c6.983-7.994,12.309-16.091,16.357-23.757h26.126L381.961,291.773z
			 M437.686,251.854c-5.935,12.7-15.872,20.283-26.583,20.283H363.99c3.157-8.614,5.075-16.715,6.215-23.757h69.104L437.686,251.854
			z M493.092,211.693c-8.141,13.187-22.253,21.06-37.751,21.06H371.74c0.155-4.832-0.056-8.113-0.152-9.266
			c-0.022-4.967-0.522-9.812-1.443-14.492h124.612L493.092,211.693z"/>
	</g>
</g>
<g>
	<g>
		<path d="M256,13.45c-4.207,0-7.617,3.41-7.617,7.617v64.569c0,4.208,3.41,7.617,7.617,7.617c4.207,0,7.617-3.41,7.617-7.617
			V21.067C263.617,16.86,260.207,13.45,256,13.45z"/>
	</g>
</g>
<g>
	<g>
		<path d="M256,418.747c-4.207,0-7.617,3.41-7.617,7.617v64.569c0,4.207,3.41,7.617,7.617,7.617c4.207,0,7.617-3.41,7.617-7.617
			v-64.569C263.617,422.156,260.207,418.747,256,418.747z"/>
	</g>
</g>
<g>
	<g>
		<path d="M115.056,337.371c-2.104-3.641-6.762-4.888-10.404-2.785L48.734,366.87c-3.643,2.103-4.891,6.762-2.788,10.404
			c1.411,2.444,3.971,3.809,6.603,3.809c1.292,0,2.602-0.329,3.801-1.022l55.918-32.285
			C115.911,345.672,117.159,341.014,115.056,337.371z"/>
	</g>
</g>
<g>
	<g>
		<path d="M466.053,134.725c-2.104-3.644-6.763-4.889-10.404-2.788l-55.918,32.285c-3.643,2.104-4.891,6.762-2.788,10.404
			c1.411,2.444,3.971,3.81,6.603,3.81c1.292,0,2.602-0.329,3.801-1.022l55.918-32.285
			C466.908,143.025,468.156,138.367,466.053,134.725z"/>
	</g>
</g>
<g>
	<g>
		<circle cx="213.59" cy="228.09" r="8.718"/>
	</g>
</g>
<g>
</g>
<g>
</g>
<g>
</g>
<g>
</g>
<g>
</g>
<g>
</g>
<g>
</g>
<g>
</g>
<g>
</g>
<g>
</g>
<g>
</g>
<g>
</g>
<g>
</g>
<g>
</g>
<g>
</g>
</svg>
